<?xml version="1.0" encoding="UTF-8" standalone="no"?>
<!-- Created with Inkscape (http://www.inkscape.org/) -->

<svg
   xmlns:dc="http://purl.org/dc/elements/1.1/"
   xmlns:cc="http://creativecommons.org/ns#"
   xmlns:rdf="http://www.w3.org/1999/02/22-rdf-syntax-ns#"
   xmlns:svg="http://www.w3.org/2000/svg"
   xmlns="http://www.w3.org/2000/svg"
   xmlns:sodipodi="http://sodipodi.sourceforge.net/DTD/sodipodi-0.dtd"
   xmlns:inkscape="http://www.inkscape.org/namespaces/inkscape"
   width="42.519684"
   height="42.519684"
   id="svg3194"
   version="1.1"
   inkscape:version="0.48.4 r9939"
   sodipodi:docname="icon-twitter.svg">
  <defs
     id="defs3196" />
  <sodipodi:namedview
     id="base"
     pagecolor="#ffffff"
     bordercolor="#666666"
     borderopacity="1.0"
     inkscape:pageopacity="0.0"
     inkscape:pageshadow="2"
     inkscape:zoom="11.2"
     inkscape:cx="27.899022"
     inkscape:cy="23.122539"
     inkscape:document-units="px"
     inkscape:current-layer="layer1"
     showgrid="false"
     units="mm"
     inkscape:window-width="1061"
     inkscape:window-height="764"
     inkscape:window-x="132"
     inkscape:window-y="204"
     inkscape:window-maximized="0" />
  <metadata
     id="metadata3199">
    <rdf:RDF>
      <cc:Work
         rdf:about="">
        <dc:format>image/svg+xml</dc:format>
        <dc:type
           rdf:resource="http://purl.org/dc/dcmitype/StillImage" />
        <dc:title></dc:title>
      </cc:Work>
    </rdf:RDF>
  </metadata>
  <g
     inkscape:label="Layer 1"
     inkscape:groupmode="layer"
     id="layer1"
     transform="translate(0,-1009.8425)">
    <g
       transform="matrix(1.25,0,0,-1.25,-349.73766,1464.6005)"
       id="g3144">
      <path
         d="m 282.6248,355.3025 c 0,3.1312 2.5381,5.6693 5.6692,5.6693 l 17.008,0 c 3.1311,0 5.6692,-2.5381 5.6692,-5.6693 l 0,-17.0079 c 0,-3.1311 -2.5381,-5.6693 -5.6692,-5.6693 l -17.008,0 c -3.1311,0 -5.6692,2.5382 -5.6692,5.6693 l 0,17.0079 z"
         style="fill:#2a2a2a;fill-opacity:1;fill-rule:evenodd;stroke:none"
         id="path3027"
         inkscape:connector-curvature="0" />
      <path
         d="m 285.4593,355.3026 c 0,1.5655 1.2691,2.8346 2.8346,2.8346 l 17.0081,0 c 1.5655,0 2.8345,-1.2691 2.8345,-2.8346 l 0,-17.008 c 0,-1.5656 -1.269,-2.8346 -2.8345,-2.8346 l -17.0081,0 c -1.5655,0 -2.8346,1.269 -2.8346,2.8346 l 0,17.008 z"
         style="fill:#ffffff;fill-opacity:1;fill-rule:evenodd;stroke:none"
         id="path3029"
         inkscape:connector-curvature="0" />
      <path
         d="m 288.2243,354.172 c 1.0568,-1.2048 2.7808,-2.5766 3.7818,-3.0585 1.001,-0.482 3.207,-1.1678 4.5973,-1.2049 -0.4022,1.8787 0.3577,3.6081 2.0761,4.4674 2.3358,1.1678 4.2266,-0.2039 4.931,-0.8341 0.3522,0.1297 0.7044,0.2038 1.1122,0.3706 0.5227,0.2138 1.4274,0.7044 1.4274,0.7044 0,0 -0.3337,-0.8341 -0.5932,-1.2049 -0.2595,-0.3707 -1.0196,-1.0566 -1.0196,-1.0566 0,0 0.6557,0.1077 1.0382,0.2225 0.3707,0.1112 1.1493,0.4078 1.1493,0.4078 0,0 -0.6417,-0.9156 -0.9454,-1.2049 -0.7786,-0.7415 -0.6362,-0.6369 -1.0938,-0.9825 0.037,-2.6692 -0.76,-5.6722 -3.003,-8.3415 -3.1638,-3.765 -9.9235,-5.076 -14.8113,-1.9092 1.038,0.018 2.3727,0.093 3.2811,0.3892 1.1145,0.3639 1.8537,0.8157 2.5952,1.3347 -0.7971,0.056 -1.4459,0.2039 -2.2616,0.7785 -0.8007,0.5641 -1.1493,1.3532 -1.483,2.0391 0.3143,-0.054 0.4079,-0.056 0.8157,-0.056 0.4078,0 0.8898,0.1297 0.8898,0.1297 0,0 -1.1679,0.241 -2.0206,1.2049 -0.8527,0.9639 -0.9639,1.8722 -1.0564,2.8361 0.2844,-0.1138 0.2964,-0.1483 0.7413,-0.2595 0.4449,-0.1112 1.1122,-0.2595 1.1122,-0.2595 0,0 -1.4088,0.8897 -1.6313,2.0761 -0.2224,1.1863 -0.3269,2.2688 0.3706,3.4107 z"
         style="fill:#2a2a2a;fill-opacity:1;fill-rule:evenodd;stroke:none"
         id="path3031"
         inkscape:connector-curvature="0" />
    </g>
  </g>
</svg>
