<?xml version="1.0" encoding="UTF-8" standalone="no"?>
<!-- Created with Inkscape (http://www.inkscape.org/) -->

<svg
   xmlns:dc="http://purl.org/dc/elements/1.1/"
   xmlns:cc="http://creativecommons.org/ns#"
   xmlns:rdf="http://www.w3.org/1999/02/22-rdf-syntax-ns#"
   xmlns:svg="http://www.w3.org/2000/svg"
   xmlns="http://www.w3.org/2000/svg"
   xmlns:sodipodi="http://sodipodi.sourceforge.net/DTD/sodipodi-0.dtd"
   xmlns:inkscape="http://www.inkscape.org/namespaces/inkscape"
   width="42.519684"
   height="38.976376"
   id="svg3194"
   version="1.1"
   inkscape:version="0.48.4 r9939"
   sodipodi:docname="icon-publications.svg">
  <defs
     id="defs3196" />
  <sodipodi:namedview
     id="base"
     pagecolor="#ffffff"
     bordercolor="#666666"
     borderopacity="1.0"
     inkscape:pageopacity="0.0"
     inkscape:pageshadow="2"
     inkscape:zoom="11.2"
     inkscape:cx="27.899022"
     inkscape:cy="23.122539"
     inkscape:document-units="px"
     inkscape:current-layer="layer1"
     showgrid="false"
     units="mm"
     inkscape:window-width="1061"
     inkscape:window-height="764"
     inkscape:window-x="132"
     inkscape:window-y="204"
     inkscape:window-maximized="0" />
  <metadata
     id="metadata3199">
    <rdf:RDF>
      <cc:Work
         rdf:about="">
        <dc:format>image/svg+xml</dc:format>
        <dc:type
           rdf:resource="http://purl.org/dc/dcmitype/StillImage" />
        <dc:title></dc:title>
      </cc:Work>
    </rdf:RDF>
  </metadata>
  <g
     inkscape:label="Layer 1"
     inkscape:groupmode="layer"
     id="layer1"
     transform="translate(0,-1013.3858)">
    <g
       transform="matrix(1.25,0,0,-1.25,-350.22447,1511.0282)"
       id="g3139">
      <path
         d="m 280.6721,370.3975 0,22.7165 c 1.8492,1.5102 3.7847,2.473 6.9204,2.473 3.744,0 7.8507,-1.3728 9.5898,-3.4108 1.7391,2.038 5.8561,3.4108 9.6001,3.4108 3.1357,0 5.0712,-0.9628 6.9204,-2.473 l 0,-22.7165 c -1.8492,1.5102 -3.7847,2.473 -6.9204,2.473 -3.744,0 -6.4443,-1.3727 -8.1834,-3.4108 l -2.8231,0 c -1.7391,2.0381 -4.4394,3.4108 -8.1834,3.4108 -3.1357,0 -5.0712,-0.9628 -6.9204,-2.473 z"
         style="fill:#2a2a2a;fill-opacity:1;fill-rule:nonzero;stroke:none"
         id="path3009"
         inkscape:connector-curvature="0" />
      <path
         d="m 298.5996,373.4417 c 2.2134,1.3763 5.2108,2.2413 8.1828,2.2413 1.7971,0 2.6289,-0.3162 4.0857,-0.8705 l 0,17.0915 c -1.4568,0.5543 -2.2886,0.8705 -4.0857,0.8705 -3.744,0 -6.4443,-1.3727 -8.1834,-3.4108 l 6e-4,-15.922 z"
         style="fill:#ffffff;fill-opacity:1;fill-rule:nonzero;stroke:none"
         id="path3011"
         inkscape:connector-curvature="0" />
      <path
         d="m 283.5066,374.8125 c 1.4569,0.5543 2.2888,0.8705 4.0859,0.8705 2.9721,0 5.9631,-0.865 8.1738,-2.2413 l 0.01,15.922 c -1.7391,2.0381 -4.4394,3.4108 -8.1834,3.4108 -1.7971,0 -2.629,-0.3162 -4.0859,-0.8705 l 0,-17.0915 z"
         style="fill:#ffffff;fill-opacity:1;fill-rule:nonzero;stroke:none"
         id="path3013"
         inkscape:connector-curvature="0" />
    </g>
  </g>
</svg>
