<?xml version="1.0" encoding="UTF-8" standalone="no"?>
<!-- Created with Inkscape (http://www.inkscape.org/) -->

<svg
   xmlns:dc="http://purl.org/dc/elements/1.1/"
   xmlns:cc="http://creativecommons.org/ns#"
   xmlns:rdf="http://www.w3.org/1999/02/22-rdf-syntax-ns#"
   xmlns:svg="http://www.w3.org/2000/svg"
   xmlns="http://www.w3.org/2000/svg"
   xmlns:sodipodi="http://sodipodi.sourceforge.net/DTD/sodipodi-0.dtd"
   xmlns:inkscape="http://www.inkscape.org/namespaces/inkscape"
   width="42.519684"
   height="42.519684"
   id="svg3194"
   version="1.1"
   inkscape:version="0.48.4 r9939"
   sodipodi:docname="icon-allfeeds.svg">
  <defs
     id="defs3196" />
  <sodipodi:namedview
     id="base"
     pagecolor="#ffffff"
     bordercolor="#666666"
     borderopacity="1.0"
     inkscape:pageopacity="0.0"
     inkscape:pageshadow="2"
     inkscape:zoom="11.2"
     inkscape:cx="17.229379"
     inkscape:cy="23.122539"
     inkscape:document-units="px"
     inkscape:current-layer="layer1"
     showgrid="false"
     units="mm"
     inkscape:window-width="1409"
     inkscape:window-height="764"
     inkscape:window-x="100"
     inkscape:window-y="109"
     inkscape:window-maximized="0" />
  <metadata
     id="metadata3199">
    <rdf:RDF>
      <cc:Work
         rdf:about="">
        <dc:format>image/svg+xml</dc:format>
        <dc:type
           rdf:resource="http://purl.org/dc/dcmitype/StillImage" />
        <dc:title></dc:title>
      </cc:Work>
    </rdf:RDF>
  </metadata>
  <g
     inkscape:label="Layer 1"
     inkscape:groupmode="layer"
     id="layer1"
     transform="translate(0,-1009.8425)">
    <path
       inkscape:connector-curvature="0"
       id="path3081"
       style="fill:#2a2a2a;fill-opacity:1;fill-rule:evenodd;stroke:none"
       d="m 3.5433418,1020.4724 c 0,-3.914 3.172625,-7.0866 7.0865002,-7.0866 l 21.26,0 c 3.913875,0 7.0865,3.1726 7.0865,7.0866 l 0,21.2599 c 0,3.9139 -3.172625,7.0866 -7.0865,7.0866 l -21.26,0 c -3.9138752,0 -7.0865002,-3.1727 -7.0865002,-7.0866 l 0,-21.2599 z" />
    <path
       inkscape:connector-curvature="0"
       id="path3083"
       style="fill:#ffffff;fill-opacity:1;fill-rule:evenodd;stroke:none"
       d="m 7.0865918,1020.4723 c 0,-1.9569 1.586375,-3.5433 3.5432502,-3.5433 l 21.260125,0 c 1.956875,0 3.543125,1.5864 3.543125,3.5433 l 0,21.26 c 0,1.957 -1.58625,3.5433 -3.543125,3.5433 l -21.260125,0 c -1.9568752,0 -3.5432502,-1.5863 -3.5432502,-3.5433 l 0,-21.26 z" />
    <path
       inkscape:connector-curvature="0"
       id="path3085"
       style="fill:#2a2a2a;fill-opacity:1;fill-rule:nonzero;stroke:none"
       d="m 10.629842,1029.3304 8.858,0 0,-8.858 3.54325,0 0,8.858 8.85875,0 0,3.5432 -8.85875,0 0,8.8587 -3.54325,0 0,-8.8587 -8.858,0 0,-3.5432 z" />
  </g>
</svg>
