<?xml version="1.0" encoding="UTF-8" standalone="no"?>
<!-- Created with Inkscape (http://www.inkscape.org/) -->

<svg
   xmlns:dc="http://purl.org/dc/elements/1.1/"
   xmlns:cc="http://creativecommons.org/ns#"
   xmlns:rdf="http://www.w3.org/1999/02/22-rdf-syntax-ns#"
   xmlns:svg="http://www.w3.org/2000/svg"
   xmlns="http://www.w3.org/2000/svg"
   xmlns:sodipodi="http://sodipodi.sourceforge.net/DTD/sodipodi-0.dtd"
   xmlns:inkscape="http://www.inkscape.org/namespaces/inkscape"
   width="42.519684"
   height="42.519684"
   id="svg3194"
   version="1.1"
   inkscape:version="0.48.4 r9939"
   sodipodi:docname="icon-videos.svg">
  <defs
     id="defs3196" />
  <sodipodi:namedview
     id="base"
     pagecolor="#ffffff"
     bordercolor="#666666"
     borderopacity="1.0"
     inkscape:pageopacity="0.0"
     inkscape:pageshadow="2"
     inkscape:zoom="11.2"
     inkscape:cx="27.899022"
     inkscape:cy="23.122539"
     inkscape:document-units="px"
     inkscape:current-layer="layer1"
     showgrid="false"
     units="mm"
     inkscape:window-width="1061"
     inkscape:window-height="764"
     inkscape:window-x="132"
     inkscape:window-y="204"
     inkscape:window-maximized="0" />
  <metadata
     id="metadata3199">
    <rdf:RDF>
      <cc:Work
         rdf:about="">
        <dc:format>image/svg+xml</dc:format>
        <dc:type
           rdf:resource="http://purl.org/dc/dcmitype/StillImage" />
        <dc:title></dc:title>
      </cc:Work>
    </rdf:RDF>
  </metadata>
  <g
     inkscape:label="Layer 1"
     inkscape:groupmode="layer"
     id="layer1"
     transform="translate(0,-1009.8425)">
    <g
       transform="matrix(1.25,0,0,-1.25,-349.73766,1370.8505)"
       id="g3162">
      <path
         d="m 282.6248,280.3025 c 0,3.1312 2.5381,5.6693 5.6692,5.6693 l 17.008,0 c 3.1311,0 5.6692,-2.5381 5.6692,-5.6693 l 0,-17.0079 c 0,-3.1311 -2.5381,-5.6693 -5.6692,-5.6693 l -17.008,0 c -3.1311,0 -5.6692,2.5382 -5.6692,5.6693 l 0,17.0079 z"
         style="fill:#2a2a2a;fill-opacity:1;fill-rule:evenodd;stroke:none"
         id="path3033"
         inkscape:connector-curvature="0" />
      <path
         d="m 285.4593,280.3026 c 0,1.5655 1.2691,2.8346 2.8346,2.8346 l 17.0081,0 c 1.5655,0 2.8345,-1.2691 2.8345,-2.8346 l 0,-17.008 c 0,-1.5656 -1.269,-2.8346 -2.8345,-2.8346 l -17.0081,0 c -1.5655,0 -2.8346,1.269 -2.8346,2.8346 l 0,17.008 z"
         style="fill:#ffffff;fill-opacity:1;fill-rule:evenodd;stroke:none"
         id="path3035"
         inkscape:connector-curvature="0" />
      <path
         d="m 292.2438,274.3022 c -0.023,0.036 -0.019,2.213 0,2.5212 0.03,0.3954 -0.037,0.7061 -0.3206,1.5009 -0.092,0.2581 -0.2583,0.758 -0.3693,1.1112 -0.8019,2.5509 -0.7593,2.401 -0.6827,2.4017 0.5282,0 1.1807,0 1.1877,-0.01 0.01,-0.01 0.1769,-0.6281 0.3817,-1.3843 0.2048,-0.7563 0.3757,-1.3858 0.3798,-1.399 0,-0.013 0.1244,0.4273 0.2671,0.9789 0.2995,1.1562 0.4675,1.7945 0.474,1.8004 0.013,0.012 0.1622,0.015 0.6488,0.012 l 0.5386,0 -0.012,-0.086 c -0.01,-0.07 -0.3772,-1.3046 -0.7621,-2.5595 -0.042,-0.1382 -0.1495,-0.4954 -0.2381,-0.7937 -0.089,-0.2982 -0.1961,-0.6526 -0.2388,-0.7873 l -0.078,-0.2451 0,-1.5322 c 0,-1.437 0,-1.5333 -0.046,-1.545 -0.097,-0.026 -1.1171,-0.014 -1.1343,0.014 z"
         style="fill:#2f2f2f;fill-opacity:1;fill-rule:nonzero;stroke:none"
         id="path3037"
         inkscape:connector-curvature="0" />
      <path
         d="m 299.2046,274.2102 c -0.2659,0.035 -0.4212,0.138 -0.5276,0.349 -0.1339,0.2647 -0.1337,0.2631 -0.1337,2.8992 l 0,2.4603 1.0728,0 0.011,-2.2676 c 0.012,-2.4635 0.01,-2.406 0.1562,-2.4431 0.1354,-0.034 0.2851,0.039 0.4718,0.2288 l 0.1791,0.1823 0.01,2.1497 0.01,2.1499 0.5358,0.01 0.5357,0.01 0,-5.6319 -0.073,-0.015 c -0.088,-0.018 -0.9003,-0.017 -0.9657,0 -0.04,0.011 -0.046,0.048 -0.046,0.2682 l 0,0.2554 -0.1521,-0.1482 c -0.35,-0.3407 -0.7278,-0.4994 -1.078,-0.4528 z"
         style="fill:#2f2f2f;fill-opacity:1;fill-rule:nonzero;stroke:none"
         id="path3039"
         inkscape:connector-curvature="0" />
      <path
         d="m 296.0829,274.2113 c -0.4796,0.058 -0.9202,0.3405 -1.1325,0.7256 -0.2165,0.3925 -0.2362,0.5981 -0.2235,2.3263 0.01,1.3387 0.013,1.4227 0.066,1.6144 0.1264,0.4569 0.3713,0.7686 0.7515,0.9564 0.5218,0.2579 1.0842,0.2243 1.5764,-0.094 0.3134,-0.2028 0.5039,-0.4959 0.6056,-0.9321 0.045,-0.1932 0.049,-0.3409 0.049,-1.6932 0,-1.6438 -0.01,-1.7389 -0.1763,-2.095 -0.1621,-0.3432 -0.5287,-0.6455 -0.9113,-0.7517 -0.1684,-0.047 -0.4611,-0.074 -0.6056,-0.056 z"
         style="fill:#2f2f2f;fill-opacity:1;fill-rule:nonzero;stroke:none"
         id="path3041"
         inkscape:connector-curvature="0" />
      <path
         d="m 296.5034,275.285 c 0.1837,0.1402 0.185,0.1517 0.1952,1.7354 0.01,1.23 0,1.439 -0.034,1.6069 -0.05,0.2261 -0.1386,0.3342 -0.3109,0.3806 -0.2232,0.06 -0.4277,-0.068 -0.4985,-0.3114 -0.054,-0.1879 -0.054,-2.9781 7e-4,-3.1663 0.041,-0.141 0.1737,-0.2953 0.2722,-0.3162 0.1279,-0.027 0.2852,0 0.3752,0.071 z"
         style="fill:#ffffff;fill-opacity:1;fill-rule:nonzero;stroke:none"
         id="path3043"
         inkscape:connector-curvature="0" />
      <path
         d="m 294.8983,261.7676 c -0.6183,0.011 -1.3505,0.028 -1.6269,0.038 -1.8562,0.067 -3.1306,0.1381 -3.3853,0.1896 -0.3628,0.073 -0.7685,0.319 -1.0039,0.6079 -0.3772,0.4631 -0.5782,1.0252 -0.6757,1.8901 -0.227,2.0111 -0.2219,4.3558 0.013,6.2964 0.1031,0.85 0.3596,1.4645 0.79,1.8929 0.2457,0.2445 0.4817,0.3813 0.7966,0.4619 0.6811,0.1742 6.0144,0.3129 9.2584,0.2408 1.8738,-0.042 3.8985,-0.128 4.4367,-0.1891 0.6959,-0.079 1.1846,-0.4396 1.5227,-1.1233 0.2554,-0.5163 0.3376,-0.918 0.4408,-2.1562 0.082,-0.9809 0.1013,-1.5915 0.087,-2.7234 -0.017,-1.3544 -0.1036,-2.5475 -0.2324,-3.2174 -0.136,-0.708 -0.4579,-1.3118 -0.8737,-1.6385 -0.3213,-0.2524 -0.6634,-0.3651 -1.2012,-0.3954 -0.16,-0.01 -0.3624,-0.022 -0.4496,-0.029 -0.3106,-0.024 -1.9722,-0.091 -2.8837,-0.117 -1.3546,-0.038 -3.7242,-0.052 -5.013,-0.029 z"
         style="fill:#2a2a2a;fill-opacity:1;fill-rule:nonzero;stroke:none"
         id="path3045"
         inkscape:connector-curvature="0" />
      <path
         d="m 297.2228,271.505 0,-7.4604 0.9523,0 0,0.2512 c 0,0.1667 0.01,0.2514 0.03,0.2514 0.016,0 0.1231,-0.088 0.238,-0.1959 0.3704,-0.3485 0.6913,-0.4447 1.0913,-0.3266 0.1532,0.045 0.3402,0.2281 0.4241,0.415 0.1609,0.3588 0.1612,0.3672 0.1612,2.3827 0,1.6545 0,1.8585 -0.045,2.037 -0.133,0.5725 -0.4232,0.8231 -0.9101,0.7863 -0.2732,-0.021 -0.4883,-0.1294 -0.7457,-0.3778 -0.1119,-0.108 -0.2124,-0.1968 -0.2232,-0.1968 -0.011,0 -0.02,0.5476 -0.02,1.2169 l 0,1.217 -0.9523,0 z"
         style="fill:#ffffff;fill-opacity:1;fill-rule:nonzero;stroke:none"
         id="path3047"
         inkscape:connector-curvature="0" />
      <path
         d="m 298.6902,268.728 c 0.1494,0.01 0.2781,-0.063 0.3472,-0.2025 0.048,-0.097 0.051,-0.1841 0.057,-1.6634 0.01,-1.4193 0,-1.5726 -0.04,-1.6924 -0.032,-0.092 -0.073,-0.1498 -0.1356,-0.1918 -0.1587,-0.106 -0.3889,-0.072 -0.5985,0.088 l -0.093,0.07 0,3.3739 0.093,0.07 c 0.1242,0.095 0.2532,0.1438 0.3695,0.148 z"
         style="fill:#2a2a2a;fill-opacity:1;fill-rule:nonzero;stroke:none"
         id="path3049"
         inkscape:connector-curvature="0" />
      <path
         d="m 289.657,271.5059 0,-1.0045 0.5885,-0.01 0.5886,-0.01 0.01,-3.1878 c 0,-1.7533 0.012,-3.2025 0.019,-3.221 0.01,-0.026 0.1324,-0.032 0.5364,-0.026 l 0.5225,0.01 0.013,3.2143 0.013,3.2143 0.6026,0.01 0.6027,0.01 -0.01,0.4951 -0.01,0.4953 -1.7395,0.01 -1.7392,0.01 z"
         style="fill:#ffffff;fill-opacity:1;fill-rule:nonzero;stroke:none"
         id="path3051"
         inkscape:connector-curvature="0" />
      <path
         d="m 302.4641,269.6514 c -0.1551,0 -0.3102,-0.031 -0.4589,-0.085 -0.5129,-0.187 -0.8159,-0.5242 -0.9383,-1.0449 -0.043,-0.1841 -0.048,-0.3497 -0.048,-1.699 0,-1.6549 0.01,-1.7224 0.1753,-2.0611 0.3015,-0.6033 1.0566,-0.9178 1.7426,-0.7259 0.5096,0.1426 0.8621,0.4904 0.9945,0.9814 0.023,0.084 0.048,0.3218 0.056,0.5291 l 0.016,0.3769 -0.9804,0 -0.012,-0.3373 c -0.014,-0.3841 -0.053,-0.5156 -0.1926,-0.6382 -0.149,-0.1307 -0.4223,-0.1397 -0.6003,-0.02 -0.2114,0.1425 -0.2644,0.3835 -0.2538,1.1674 l 0.01,0.5555 1.0151,0.01 1.0152,0.01 -0.014,0.8267 c -0.016,0.9218 -0.035,1.0618 -0.1902,1.3889 -0.2303,0.4849 -0.7799,0.7827 -1.3335,0.7713 z"
         style="fill:#ffffff;fill-opacity:1;fill-rule:nonzero;stroke:none"
         id="path3053"
         inkscape:connector-curvature="0" />
      <path
         d="m 293.3869,269.5738 0,-2.3951 c 0,-2.6082 0,-2.6644 0.1488,-2.9159 0.1595,-0.2748 0.5341,-0.3608 0.9285,-0.2133 0.1904,0.071 0.4135,0.2253 0.6018,0.4167 0.087,0.088 0.1731,0.1603 0.1918,0.1603 0.025,0 0.034,-0.072 0.034,-0.291 l 0,-0.2909 0.9523,0 0,5.5292 -0.9523,0 0,-4.2652 -0.205,-0.2042 c -0.1628,-0.1618 -0.2313,-0.2105 -0.3316,-0.2381 -0.1705,-0.047 -0.2777,-0.015 -0.348,0.105 -0.053,0.09 -0.054,0.131 -0.061,2.3472 l -0.01,2.2553 -0.9516,0 z"
         style="fill:#ffffff;fill-opacity:1;fill-rule:nonzero;stroke:none"
         id="path3055"
         inkscape:connector-curvature="0" />
      <path
         d="m 302.5029,268.7901 c 0.2126,0 0.3466,-0.082 0.4374,-0.2663 0.058,-0.1169 0.064,-0.1661 0.072,-0.5969 l 0.01,-0.4696 -0.5184,0 c -0.447,0 -0.5212,0.01 -0.5349,0.042 -0.024,0.064 0.01,0.8056 0.042,0.9135 0.076,0.2536 0.2382,0.3771 0.4935,0.3771 z"
         style="fill:#2a2a2a;fill-opacity:1;fill-rule:nonzero;stroke:none"
         id="path3057"
         inkscape:connector-curvature="0" />
    </g>
  </g>
</svg>
